<svg xmlns="http://www.w3.org/2000/svg" xmlns:xlink="http://www.w3.org/1999/xlink" width="52" height="52" viewBox="0 0 52 52">
  <defs>
    <clipPath id="clip-path">
      <rect id="Rectangle_1843" data-name="Rectangle 1843" width="52" height="52" transform="translate(35 555)" fill="#ef1919" opacity="0.3"/>
    </clipPath>
  </defs>
  <g id="Mask_Group_18" data-name="Mask Group 18" transform="translate(-35 -555)" clip-path="url(#clip-path)">
    <g id="map-location" transform="translate(39 561)">
      <path id="Path_3469" data-name="Path 3469" d="M40.95,24.76H6.166L3.4,46.689H43.3Z" transform="translate(-0.829 -8.117)" fill="#fff"/>
      <path id="Path_3470" data-name="Path 3470" d="M40.12,24.029l2.355,21.929H2.573L5.336,24.029H40.12m2.038-2.269H3.335l-.25,1.985L.321,45.674,0,48.226H45l-.27-2.511L42.375,23.787l-.217-2.027Z" transform="translate(0 -7.385)" fill="#0d49ef"/>
      <path id="Path_3471" data-name="Path 3471" d="M12.533,44.578a4.83,4.83,0,0,1-.581-.036,3.6,3.6,0,0,1-.494-.094.756.756,0,1,1,.378-1.464,2.454,2.454,0,0,0,.3.057,3.664,3.664,0,0,0,.919-.011.756.756,0,0,1,.189,1.5A5.481,5.481,0,0,1,12.533,44.578ZM16.05,43.7a.756.756,0,0,1-.273-1.462c.448-.173.9-.365,1.341-.574a.756.756,0,0,1,.643,1.369c-.475.223-.96.43-1.439.615A.719.719,0,0,1,16.05,43.7Zm-6.312-1.31a.757.757,0,0,1-.752-.679,4.434,4.434,0,0,1-.021-.448c0-.088,0-.175.007-.262a5,5,0,0,1,.17-1.063.756.756,0,0,1,1.459.395,3.473,3.473,0,0,0-.118.743c0,.062-.005.125-.005.188a2.736,2.736,0,0,0,.014.294.757.757,0,0,1-.676.83Zm10.344-.755a.756.756,0,0,1-.413-1.391c.4-.262.806-.544,1.195-.837a.756.756,0,0,1,.911,1.208c-.417.314-.848.616-1.282.9A.755.755,0,0,1,20.082,41.637Zm3.6-2.76a.756.756,0,0,1-.446-1.367c.158-.114.319-.227.485-.333a9.577,9.577,0,0,1,.907-.52.756.756,0,1,1,.68,1.351,8.163,8.163,0,0,0-.764.436q-.213.14-.417.289A.755.755,0,0,1,23.68,38.877ZM11.615,38.52a.756.756,0,0,1-.361-1.42,3.385,3.385,0,0,1,1.243-.393,2.754,2.754,0,0,1,.674.006.756.756,0,0,1-.2,1.5,1.226,1.226,0,0,0-.307,0,1.865,1.865,0,0,0-.69.219A.756.756,0,0,1,11.615,38.52Zm16.208-1.4a.756.756,0,0,1-.157-1.5c.486-.1,1.009-.191,1.556-.259a.746.746,0,0,1,.843.657.755.755,0,0,1-.657.843c-.5.063-.983.142-1.426.237A.719.719,0,0,1,27.823,37.119Zm4.507-.467a.756.756,0,0,1-.03-1.512l1.507-.062a.745.745,0,0,1,.79.721.756.756,0,0,1-.721.789l-1.514.062Zm4.521-.335a.756.756,0,0,1-.153-1.5,2.668,2.668,0,0,0,1.019-.4.785.785,0,0,1,1.087.113.73.73,0,0,1-.106,1.042c-.042.032-.083.063-.128.092A4.129,4.129,0,0,1,37,36.3.754.754,0,0,1,36.85,36.318Zm3.077-3.047a.77.77,0,0,1-.224-.034.756.756,0,0,1-.5-.946,1.673,1.673,0,0,0,.073-.383l0-.088a1.508,1.508,0,0,0-.1-.525A.756.756,0,0,1,40.6,30.77a3.013,3.013,0,0,1,.193,1.051c0,.064,0,.126-.006.189a3.172,3.172,0,0,1-.138.729A.756.756,0,0,1,39.927,33.27ZM36.1,30.165a.756.756,0,0,1-.2-1.484,4.475,4.475,0,0,1,1.8-.136.756.756,0,0,1-.2,1.5,2.987,2.987,0,0,0-1.191.091A.716.716,0,0,1,36.1,30.165Z" transform="translate(-2.186 -9.03)" fill="#0d49ef"/>
      <path id="Path_3472" data-name="Path 3472" d="M35.532,9.692c-.4-3.024-1.977-6.942-8.183-6.942s-7.787,3.919-8.183,6.942a14.829,14.829,0,0,0,.25,4.977,33.356,33.356,0,0,0,7.7,15.56.326.326,0,0,0,.476,0,33.356,33.356,0,0,0,7.7-15.56A14.79,14.79,0,0,0,35.532,9.692Zm-8.183,5.854a4.8,4.8,0,1,1,4.8-4.8A4.8,4.8,0,0,1,27.348,15.546Z" transform="translate(-4.646 -2.75)" fill="#ef1919"/>
      <g id="Group_4039" data-name="Group 4039" transform="translate(17.148 2.443)">
        <path id="Path_3473" data-name="Path 3473" d="M28.232,5.981a5.554,5.554,0,1,0,5.555,5.554A5.561,5.561,0,0,0,28.232,5.981Zm0,9.6a4.042,4.042,0,1,1,4.043-4.043A4.047,4.047,0,0,1,28.232,15.578Z" transform="translate(-22.677 -5.981)" fill="#e32525"/>
      </g>
    </g>
  </g>
</svg>
