<svg xmlns="http://www.w3.org/2000/svg" xmlns:xlink="http://www.w3.org/1999/xlink" width="52" height="52" viewBox="0 0 52 52">
  <defs>
    <clipPath id="clip-path">
      <rect id="Rectangle_1844" data-name="Rectangle 1844" width="52" height="52" transform="translate(35 633)" fill="#ef1919" opacity="0.3"/>
    </clipPath>
  </defs>
  <g id="Mask_Group_19" data-name="Mask Group 19" transform="translate(-35 -633)" clip-path="url(#clip-path)">
    <g id="info" transform="translate(40 638)">
      <path id="Path_3461" data-name="Path 3461" d="M125.983,292.423l-7.566,2.049a12.835,12.835,0,0,1-3.354.446h-4.577v-.01h-1.227a1.233,1.233,0,0,1-1.244-1.152,1.211,1.211,0,0,1,1.209-1.269h4.844a2.892,2.892,0,0,0-.166-5.78h-5.71a2.324,2.324,0,0,1-1.671-.691,4.378,4.378,0,0,0-3.092-1.334,4.456,4.456,0,0,0-4.446,4.276H97.324v12.353h16.04a12.293,12.293,0,0,0,4.78-.968l12.441-4.45A3.65,3.65,0,0,0,125.983,292.423Zm0,0" transform="translate(-89.518 -261.848)" fill="#ffd2b4"/>
      <path id="Path_3462" data-name="Path 3462" d="M271.938,379.707l-7.566,2.049a12.835,12.835,0,0,1-3.354.446l-5.01-.01v6.4h3.312a12.3,12.3,0,0,0,4.781-.968l12.441-4.45A3.65,3.65,0,0,0,271.938,379.707Zm0,0" transform="translate(-235.473 -349.131)" fill="#ffbea0"/>
      <path id="Path_3463" data-name="Path 3463" d="M262.749,312.818a2.892,2.892,0,0,0-2.892-2.892h-3.849v5.78h4.015A2.893,2.893,0,0,0,262.749,312.818Zm0,0" transform="translate(-235.473 -285.066)" fill="#ffbea0"/>
      <path id="Path_3464" data-name="Path 3464" d="M6.25,301.293H0V282.918H6.25a3.208,3.208,0,0,1,3.208,3.208v11.958A3.208,3.208,0,0,1,6.25,301.293Zm0,0" transform="translate(0 -260.225)" fill="#0d49ef"/>
      <path id="Path_3465" data-name="Path 3465" d="M142.657,10.829A10.829,10.829,0,1,1,131.829,0,10.829,10.829,0,0,1,142.657,10.829Zm0,0" transform="translate(-111.294)" fill="#ef1919"/>
      <path id="Path_3467" data-name="Path 3467" d="M219.545,116.189a2.208,2.208,0,0,1-2.206-2.207v-2.518a1.274,1.274,0,0,1-1.564-1.989l1.937-1.937a1.274,1.274,0,0,1,2.175.9v5.03l1.393-.582a1.274,1.274,0,1,1,.983,2.351l-1.866.78A2.21,2.21,0,0,1,219.545,116.189Zm0,0" transform="translate(-198.125 -98.569)" fill="#fff"/>
      <path id="Path_3468" data-name="Path 3468" d="M238.994,50.2h-.466a1.274,1.274,0,1,1,0-2.548h.466a1.274,1.274,0,1,1,0,2.548Zm0,0" transform="translate(-218.223 -43.826)" fill="#fff"/>
    </g>
  </g>
</svg>
