<svg xmlns="http://www.w3.org/2000/svg" width="61.17" height="28.711" viewBox="0 0 61.17 28.711">
  <g id="Group_4040" data-name="Group 4040" transform="translate(-1390 -787.554)">
    <path id="Path_3331" data-name="Path 3331" d="M320.518,419.8c6.113.038,11.8-.287,17.491-.677a21.651,21.651,0,0,0,7.331-1.532,7.578,7.578,0,0,0,4.744-6.146,28.8,28.8,0,0,0,.113-6.6,7.983,7.983,0,0,0-6.484-7.41,60.132,60.132,0,0,0-9.273-1.217c-6.438-.338-12.882-.564-19.331-.446a127.613,127.613,0,0,0-18.446,1.437c-4.2.691-6.633,3.09-7.3,7.314a25.229,25.229,0,0,0-.027,6.086c.392,4.676,3.153,6.965,7.345,7.885a19.515,19.515,0,0,0,3.631.444c.975.026,1.189.419,1.137,1.294-.066,1.117-.024,2.24-.011,3.36,0,.289-.145.686.2.828s.524-.241.716-.451q1.821-1.991,3.613-4.008a1.17,1.17,0,0,1,1.03-.5C311.633,419.737,316.278,419.854,320.518,419.8Z" transform="translate(1100.838 391.82)" fill="#fff"/>
    <path id="Path_3332" data-name="Path 3332" d="M320.518,419.8c-4.24.057-8.886-.06-13.525-.343a1.17,1.17,0,0,0-1.03.5q-1.8,2.013-3.613,4.008c-.192.21-.37.6-.716.451s-.2-.539-.2-.828c-.013-1.12-.055-2.243.011-3.36.052-.874-.162-1.267-1.137-1.294a19.515,19.515,0,0,1-3.631-.444c-4.192-.92-6.953-3.209-7.345-7.885a25.229,25.229,0,0,1,.027-6.086c.669-4.224,3.1-6.623,7.3-7.314a127.613,127.613,0,0,1,18.446-1.437c6.449-.118,12.893.108,19.331.446a60.132,60.132,0,0,1,9.273,1.217,7.983,7.983,0,0,1,6.484,7.41,28.8,28.8,0,0,1-.113,6.6,7.578,7.578,0,0,1-4.744,6.146,21.651,21.651,0,0,1-7.331,1.532C332.322,419.51,326.632,419.835,320.518,419.8Zm1.275-11.87c0,1.425,0,2.851,0,4.276a1.241,1.241,0,0,0,.656,1.272,1.032,1.032,0,0,0,1.365-.3c.235-.309.356-.213.631-.045a3.167,3.167,0,0,0,4.615-1.179,5.014,5.014,0,0,0,.007-5.144,3.187,3.187,0,0,0-3.891-1.6c-1.127.335-1.127.335-1.129-.894,0-.17-.007-.34,0-.509.036-.78-.231-1.406-1.085-1.414-.9-.007-1.177.641-1.171,1.458C321.8,405.212,321.793,406.57,321.794,407.927Zm-8.572,1.551c-.831-2.234-1.539-4.168-2.272-6.093-.26-.683-.68-1.236-1.526-.935a1.161,1.161,0,0,0-.7,1.726q1.659,4.257,3.331,8.509a1.228,1.228,0,0,0,1.2.932,1.213,1.213,0,0,0,1.122-.887c.346-.845.674-1.7,1.008-2.55.791-2.016,1.588-4.03,2.365-6.052a1.127,1.127,0,0,0-.65-1.659c-.765-.289-1.225.117-1.528.773-.127.276-.224.566-.331.851C314.6,405.792,313.965,407.493,313.222,409.478Zm21.874.671c.576,0,1.152.006,1.728,0,1.227-.016,1.563-.437,1.327-1.65a4.065,4.065,0,0,0-4.371-3.4,4.133,4.133,0,0,0-3.6,4.331,3.947,3.947,0,0,0,2.4,3.91,4.832,4.832,0,0,0,4.9-.646.936.936,0,0,0,.35-1.4.9.9,0,0,0-1.326-.285,9.446,9.446,0,0,1-1.092.541,2.231,2.231,0,0,1-2.7-.768c-.205-.4-.193-.638.345-.628C333.741,410.159,334.419,410.15,335.1,410.149Zm-30.352,3.386a2.61,2.61,0,0,0,2.146-1.633c.278-.786-.31-1.1-.776-1.473-.343-.276-.709-.523-1.069-.777-.719-.5-1.377-.544-1.913.268a.837.837,0,0,1-1.164.276,5.158,5.158,0,0,1-2.7-2.636,1.015,1.015,0,0,1,.329-1.423,1.01,1.01,0,0,0,.581-.893,6.039,6.039,0,0,0-2-2.735,1.018,1.018,0,0,0-.7,0,1.965,1.965,0,0,0-1.333,2.793,14.5,14.5,0,0,0,8.033,8.072A3.669,3.669,0,0,0,304.745,413.535Zm34.172-4.276c0,1.051-.017,2.1.006,3.153a1.13,1.13,0,1,0,2.258.1,8.373,8.373,0,0,0,.028-1.827c-.2-1.72.1-3.085,2.07-3.548a.8.8,0,0,0,.548-1.055,1.071,1.071,0,0,0-.955-.915,1.442,1.442,0,0,0-1.222.379c-.243.218-.38.39-.671-.024a1.067,1.067,0,0,0-1.384-.248,1.092,1.092,0,0,0-.682,1.135C338.923,407.36,338.916,408.31,338.917,409.259Zm-20.383.418c0,.881.014,1.76,0,2.64-.016.769.33,1.282,1.093,1.308s1.16-.466,1.161-1.236c0-1.827.009-3.655,0-5.482,0-.7-.312-1.184-1.083-1.191-.8-.008-1.156.454-1.161,1.219C318.53,407.85,318.535,408.764,318.533,409.677Zm-16.55-7.373c-.2.029-.611-.137-.636.309-.017.3.329.251.557.286,2.745.422,4.011,1.728,4.361,4.493.032.255-.063.639.3.646.381.008.289-.371.292-.627A5.219,5.219,0,0,0,301.984,402.3Zm18.994,1.37a1.27,1.27,0,0,0-1.216-1.273,1.251,1.251,0,0,0-1.292,1.272,1.254,1.254,0,1,0,2.508,0Zm-15.472,3.271a3.458,3.458,0,0,0-3.064-3.288c-.264-.032-.612-.156-.674.21-.065.385.324.346.574.4a2.743,2.743,0,0,1,2.565,2.678c.041.245-.04.627.377.563C305.591,407.463,305.479,407.136,305.505,406.945Zm-1.289-.306a1.832,1.832,0,0,0-1.62-1.662c-.176,0-.349.024-.414.212-.1.282.107.348.316.382a1.235,1.235,0,0,1,1.131,1.215c.019.189.138.341.32.319C304.2,407.076,304.224,406.851,304.217,406.639Z" transform="translate(1100.838 391.82)" fill="#fff" fill-rule="evenodd"/>
    <path id="Union_1" data-name="Union 1" d="M36.643,11.037a3.947,3.947,0,0,1-2.4-3.91,4.133,4.133,0,0,1,3.6-4.33,4.065,4.065,0,0,1,4.371,3.4c.235,1.214-.1,1.635-1.327,1.651-.576.008-1.152,0-1.728,0-.678,0-1.356.011-2.033,0-.538-.01-.551.23-.345.628a2.231,2.231,0,0,0,2.7.768,9.393,9.393,0,0,0,1.093-.541.9.9,0,0,1,1.325.285.936.936,0,0,1-.35,1.4,5.221,5.221,0,0,1-3.02,1.046A4.757,4.757,0,0,1,36.643,11.037ZM39.174,6.32c.3.036.592.072.663-.211.14-.553-.316-1-.825-1.251a1.568,1.568,0,0,0-1.874.243c-.3.275-.64.622-.491,1.03.093.254.331.221.572.189a1.189,1.189,0,0,1,.332-.016,3.754,3.754,0,0,0,.605,0,4.025,4.025,0,0,0,.606,0,.767.767,0,0,1,.118-.008A2.589,2.589,0,0,1,39.174,6.32ZM28.5,10.835c-.276-.169-.4-.264-.632.045a1.031,1.031,0,0,1-1.364.3,1.241,1.241,0,0,1-.657-1.272c.007-1.425,0-2.85,0-4.276,0-1.357.007-2.715,0-4.072C25.841.741,26.116.093,27.017.1c.853.008,1.12.634,1.085,1.414-.008.169,0,.339,0,.509,0,1.228,0,1.228,1.129.893a3.187,3.187,0,0,1,3.892,1.6,5.016,5.016,0,0,1-.006,5.144,3.218,3.218,0,0,1-2.781,1.729A3.513,3.513,0,0,1,28.5,10.835Zm-.4-3.8a2.054,2.054,0,0,0,1.677,2.285c1,.03,1.748-.9,1.763-2.184s-.7-2.248-1.669-2.273h-.044C28.839,4.867,28.118,5.768,28.1,7.04Zm-4.421,4.289c-.763-.026-1.109-.539-1.093-1.308.018-.88,0-1.76,0-2.64,0-.914,0-1.828,0-2.741,0-.765.358-1.227,1.161-1.219.771.007,1.078.492,1.083,1.191.013,1.828.008,3.655,0,5.482,0,.75-.374,1.236-1.1,1.236Zm-7.564-.941Q14.438,6.139,12.784,1.88a1.161,1.161,0,0,1,.7-1.726c.846-.3,1.266.252,1.526.935.733,1.925,1.441,3.858,2.272,6.092C18.021,5.2,18.658,3.5,19.3,1.8c.107-.285.2-.575.331-.85.3-.656.763-1.062,1.528-.773a1.127,1.127,0,0,1,.65,1.659c-.778,2.021-1.575,4.036-2.366,6.051-.334.852-.662,1.7-1.008,2.55a1.213,1.213,0,0,1-1.122.887h-.03A1.233,1.233,0,0,1,16.115,10.388Zm27.893.908a1.083,1.083,0,0,1-1.029-1.18c-.023-1.05-.006-2.1-.006-3.153,0-.949.006-1.9,0-2.848a1.091,1.091,0,0,1,.682-1.135,1.067,1.067,0,0,1,1.384.247c.291.413.428.242.671.024a1.441,1.441,0,0,1,1.222-.379,1.071,1.071,0,0,1,.955.915.8.8,0,0,1-.548,1.055c-1.966.463-2.269,1.828-2.07,3.547a8.362,8.362,0,0,1-.028,1.827A1.08,1.08,0,0,1,44.124,11.3Q44.067,11.3,44.008,11.3ZM8.8,11.239a3.714,3.714,0,0,1-.572-.162A14.5,14.5,0,0,1,.2,3.006,1.965,1.965,0,0,1,1.528.212a1.018,1.018,0,0,1,.7,0,6.042,6.042,0,0,1,2,2.735,1.01,1.01,0,0,1-.58.893A1.015,1.015,0,0,0,3.32,5.264,5.156,5.156,0,0,0,6.024,7.9a.837.837,0,0,0,1.164-.276c.536-.812,1.194-.773,1.913-.268.36.253.727.5,1.069.777.466.375,1.054.687.776,1.473a2.618,2.618,0,0,1-2.133,1.633Zm1.822-5.5c-.365-.007-.269-.391-.3-.646C9.971,2.33,8.705,1.025,5.96.6,5.733.568,5.386.617,5.4.316c.019-.339.261-.324.463-.311a.958.958,0,0,0,.173,0,5.219,5.219,0,0,1,4.875,5.108c0,.253.087.626-.28.626ZM8.961,4.65A2.743,2.743,0,0,0,6.4,1.972c-.25-.056-.638-.016-.574-.4.061-.366.41-.242.674-.21A3.458,3.458,0,0,1,9.561,4.649c-.026.191.086.518-.223.565a.571.571,0,0,1-.086.007C8.932,5.221,9,4.877,8.961,4.65Zm-1.276-.16A1.234,1.234,0,0,0,6.555,3.276c-.208-.034-.413-.1-.316-.382.065-.189.237-.208.414-.212a1.833,1.833,0,0,1,1.62,1.661c.008.213-.015.438-.267.468l-.033,0C7.809,4.812,7.7,4.667,7.686,4.491Zm14.84-3.113A1.251,1.251,0,0,1,23.817.1a1.27,1.27,0,0,1,1.216,1.272,1.229,1.229,0,0,1-1.207,1.257l-.078,0A1.239,1.239,0,0,1,22.525,1.377Z" transform="translate(1396.782 794.116)" fill="#0d49ef" stroke="rgba(0,0,0,0)" stroke-miterlimit="10" stroke-width="1"/>
    <path id="Path_3343" data-name="Path 3343" d="M521.65,473.056c-.016,1.282-.768,2.214-1.763,2.184a2.053,2.053,0,0,1-1.677-2.285c.019-1.29.76-2.2,1.771-2.172C520.951,470.808,521.666,471.782,521.65,473.056Z" transform="translate(906.671 328.201)" fill="#e9ecff" fill-rule="evenodd"/>
    <path id="Path_3344" data-name="Path 3344" d="M575.649,471.048a3.872,3.872,0,0,1-.605,0c-.311-.049-.765.2-.9-.173-.15-.409.188-.756.491-1.03a1.568,1.568,0,0,1,1.874-.243c.509.25.965.7.825,1.251-.106.42-.7.137-1.075.195A4.1,4.1,0,0,1,575.649,471.048Z" transform="translate(859.29 329.378)" fill="#e9ecff" fill-rule="evenodd"/>
  </g>
</svg>
